<svg width="95" height="95" viewBox="0 0 95 95" fill="none" xmlns="http://www.w3.org/2000/svg">
<g clip-path="url(#clip0_113_15557)">
<rect width="95" height="95" fill="#F4F9FF"/>
<path fill-rule="evenodd" clip-rule="evenodd" d="M62.5714 22.1868C62.3577 21.9761 62.1397 21.7698 61.9173 21.5681C58.3105 18.2959 53.5866 16.2328 48.3857 16.0185C48.0872 16.0062 47.7872 16 47.4857 16C47.1842 16 46.8842 16.0062 46.5857 16.0185C41.3848 16.2328 36.661 18.2959 33.0541 21.5681C32.8318 21.7698 32.6137 21.9761 32.4 22.1868C32.3284 22.2574 32.2574 22.3284 32.1868 22.4C32.0467 22.5421 31.9085 22.6861 31.7724 22.832C28.382 26.466 26.2372 31.2773 26.0185 36.5857C26.0062 36.8842 26 37.1842 26 37.4857C26 37.7872 26.0062 38.0872 26.0185 38.3857C26.2372 43.6941 28.382 48.5054 31.7724 52.1394C31.9085 52.2853 32.0466 52.4293 32.1866 52.5713C32.2573 52.6429 32.3284 52.714 32.4 52.7846C32.6137 52.9954 32.8318 53.2017 33.0541 53.4034C36.868 56.8633 41.9306 58.9714 47.4857 58.9714C53.0408 58.9714 58.1035 56.8633 61.9173 53.4034C62.1396 53.2017 62.3576 52.9956 62.5712 52.7849C62.6428 52.7143 62.7142 52.6428 62.7849 52.5712C62.9249 52.4292 63.063 52.2853 63.199 52.1394C66.5895 48.5054 68.7342 43.6941 68.9529 38.3857C68.9652 38.0872 68.9714 37.7872 68.9714 37.4857C68.9714 37.1842 68.9652 36.8842 68.9529 36.5857C68.7342 31.2773 66.5895 26.466 63.199 22.832C63.0629 22.6861 62.9248 22.5422 62.7848 22.4001C62.7142 22.3285 62.643 22.2574 62.5714 22.1868ZM60.6429 22.8425L58.2439 25.2415C57.8925 25.593 57.8925 26.1628 58.2439 26.5143V26.5143C58.5954 26.8658 59.1652 26.8658 59.5167 26.5143L61.9254 24.1056C64.9926 27.4139 66.9349 31.774 67.1512 36.5857H62.5571C62.0601 36.5857 61.6571 36.9887 61.6571 37.4857V37.4857C61.6571 37.9828 62.0601 38.3857 62.5571 38.3857H67.1512C66.9349 43.1974 64.9926 47.5575 61.9254 50.8658L59.5167 48.4571C59.1652 48.1057 58.5954 48.1057 58.2439 48.4571V48.4571C57.8925 48.8086 57.8925 49.3785 58.2439 49.7299L60.6429 52.1289C57.1548 55.2654 52.5444 57.1714 47.4857 57.1714C42.427 57.1714 37.8166 55.2654 34.3285 52.1289L36.7275 49.7299C37.079 49.3785 37.079 48.8086 36.7275 48.4571V48.4571C36.376 48.1057 35.8062 48.1057 35.4547 48.4571L33.046 50.8658C29.9788 47.5575 28.0365 43.1974 27.8202 38.3857H31.9571C32.4542 38.3857 32.8571 37.9828 32.8571 37.4857V37.4857C32.8571 36.9887 32.4542 36.5857 31.9571 36.5857H27.8202C28.0365 31.774 29.9788 27.4139 33.046 24.1056L35.6986 26.7582C36.0501 27.1097 36.62 27.1097 36.9714 26.7582V26.7582C37.3229 26.4067 37.3229 25.8369 36.9714 25.4854L34.3285 22.8425C37.6086 19.893 41.8812 18.0317 46.5857 17.8202V21.9571C46.5857 22.4542 46.9887 22.8571 47.4857 22.8571V22.8571C47.9828 22.8571 48.3857 22.4542 48.3857 21.9571V17.8202C53.0903 18.0317 57.3628 19.893 60.6429 22.8425Z" fill="#3083FF"/>
<path fill-rule="evenodd" clip-rule="evenodd" d="M39.4218 65.3857V56.2285H37.6218V67.1857H57.7075V56.2285H55.9075V65.3857H39.4218Z" fill="#3083FF"/>
<path fill-rule="evenodd" clip-rule="evenodd" d="M43.5957 66.2856V79.0999C43.5957 79.597 43.1927 79.9999 42.6957 79.9999V79.9999C42.1986 79.9999 41.7957 79.597 41.7957 79.0999V66.2856H43.5957ZM51.8385 79.9999C51.3415 79.9999 50.9385 79.597 50.9385 79.0999V66.2856H52.7385V79.0999C52.7385 79.597 52.3356 79.9999 51.8385 79.9999V79.9999Z" fill="#3083FF"/>
<path d="M50.2683 37.9428C50.2683 39.4576 49.0403 40.6857 47.5254 40.6857C46.0106 40.6857 44.7826 39.4576 44.7826 37.9428C44.7826 36.428 46.0106 35.2 47.5254 35.2C49.0403 35.2 50.2683 36.428 50.2683 37.9428Z" fill="#3083FF"/>
<path fill-rule="evenodd" clip-rule="evenodd" d="M54.5609 33.2704C54.9336 32.9416 54.9692 32.3728 54.6403 32.0001C54.3115 31.6274 53.7427 31.5919 53.37 31.9207L49.095 35.6928C48.6504 35.3822 48.1095 35.2 47.5261 35.2C46.0112 35.2 44.7832 36.428 44.7832 37.9429C44.7832 39.4577 46.0112 40.6857 47.5261 40.6857C49.0409 40.6857 50.2689 39.4577 50.2689 37.9429C50.2689 37.6701 50.2291 37.4067 50.155 37.158L54.5609 33.2704ZM47.6094 37.0036L46.5838 37.9085C46.6019 37.4037 47.0168 37 47.5261 37C47.5541 37 47.5819 37.0012 47.6094 37.0036Z" fill="#3083FF"/>
</g>
<defs>
<clipPath id="clip0_113_15557">
<rect width="95" height="95" fill="white"/>
</clipPath>
</defs>
</svg>
