<svg width="95" height="95" viewBox="0 0 95 95" fill="none" xmlns="http://www.w3.org/2000/svg">
<g clip-path="url(#clip0_113_15555)">
<rect width="95" height="95" fill="#F4F9FF"/>
<circle cx="47.5" cy="47.5" r="47.5" fill="#F4F9FF"/>
<path fill-rule="evenodd" clip-rule="evenodd" d="M44.0155 52.2764V57.0486H42.2155V52.2764H44.0155ZM49.9858 57.0486V52.2764H51.7858V57.0486H49.9858Z" fill="#3083FF"/>
<path fill-rule="evenodd" clip-rule="evenodd" d="M73.0003 67.5214H58.9589V65.7214H73.0003V67.5214ZM58.9589 71.6985H73.0003V73.4985H58.9589V71.6985Z" fill="#3083FF"/>
<path fill-rule="evenodd" clip-rule="evenodd" d="M35.0415 67.5214H21V65.7214H35.0415V67.5214ZM21 71.6985H35.0415V73.4985H21V71.6985Z" fill="#3083FF"/>
<path fill-rule="evenodd" clip-rule="evenodd" d="M32.6594 51.3764V32.4509H30.8594V53.1764H63.1426V32.5519H61.3426V51.3764H32.6594Z" fill="#3083FF"/>
<path fill-rule="evenodd" clip-rule="evenodd" d="M46.9999 18.8379L68.788 36.6366L67.6493 38.0306L46.9999 21.1621L26.3506 38.0306L25.2118 36.6366L46.9999 18.8379Z" fill="#3083FF"/>
<path fill-rule="evenodd" clip-rule="evenodd" d="M38.327 56.4536H55.6743V62.4307H60.456V76.7895H33.5453V62.4307H38.327V56.4536ZM40.127 64.2307H35.3453V74.9895H58.656V64.2307H53.8743V58.2536H40.127V64.2307Z" fill="#3083FF"/>
</g>
<defs>
<clipPath id="clip0_113_15555">
<rect width="95" height="95" fill="white"/>
</clipPath>
</defs>
</svg>
