<svg width="95" height="95" viewBox="0 0 95 95" fill="none" xmlns="http://www.w3.org/2000/svg">
<g clip-path="url(#clip0_113_15556)">
<rect width="95" height="95" fill="#F4F9FF"/>
<circle cx="47.5" cy="47.5" r="47.5" fill="#F4F9FF"/>
<path d="M62.3105 21.8513C58.0674 21.791 53.3222 23.9818 50.5374 26.6804C47.1151 29.9969 47.1847 33.498 48.4672 37.688L43.297 42.6982L32.3923 32.131C32.385 32.0706 32.3887 32.0067 32.3777 31.9463L31.8574 29.5424C31.7548 29.0737 31.458 28.6511 31.0439 28.3919L24.4264 24.2233C23.6862 23.7617 22.6969 23.8611 22.074 24.4647L20.4947 25.9951C19.8755 26.5988 19.7692 27.5539 20.2492 28.2677L24.4777 34.6059C24.7415 35.0036 25.1519 35.2841 25.6319 35.3906L28.1968 35.9623C28.2665 35.9765 28.3361 35.9729 28.4057 35.9801L39.314 46.5544L32.9456 52.7328C29.3437 52.3955 25.9177 53.8478 23.7082 56.6743C20.9234 60.2428 20.9894 65.3702 23.8694 68.8749C25.7125 71.119 28.4533 72.4967 31.381 72.6601C31.5752 72.6707 31.7694 72.6743 31.9636 72.6743C34.6935 72.6743 37.3244 71.6232 39.2627 69.7449C41.4576 67.6179 42.5238 64.7169 42.227 61.7271L46.3493 57.736C46.5654 58.4319 46.9392 59.0817 47.4852 59.6108L60.0827 71.8256C60.9987 72.7098 62.2006 73.1501 63.4024 73.1501C64.6043 73.1501 65.8061 72.7098 66.7185 71.8256L69.3714 69.2513C71.1998 67.4794 71.1998 64.5962 69.3714 62.8243L56.7666 50.6095C56.2243 50.0839 55.5537 49.7253 54.8355 49.5122L57.7486 46.6858C62.0723 47.925 65.6889 47.996 69.1112 44.6796C72.5299 41.3667 75.1682 35.1847 73.6695 30.5686C73.5742 30.2668 73.3177 30.0324 72.999 29.9579C72.6802 29.8833 72.3431 29.9756 72.1122 30.1993L66.2605 35.87C66.026 36.1008 65.6779 36.1931 65.3554 36.1043L64.3295 35.838C62.0687 35.2521 60.2879 33.5264 59.6833 31.3391L59.4085 30.3449C59.3205 30.0324 59.4158 29.6951 59.654 29.4678L65.5167 23.783C65.7475 23.5593 65.8391 23.2361 65.7658 22.9272C65.6852 22.6183 65.4507 22.3697 65.1356 22.2739C64.2415 21.9969 63.2888 21.8655 62.3105 21.8513ZM62.2299 23.6764C62.4717 23.68 62.7099 23.6871 62.9444 23.7048L58.3275 28.1789C57.6167 28.8677 57.3418 29.8762 57.602 30.8136L57.8768 31.8114C58.6536 34.6236 60.9401 36.8394 63.8458 37.5957L64.8718 37.862C65.8391 38.1141 66.8797 37.8442 67.5869 37.1554L72.1892 32.6955C72.4786 36.3316 70.3644 40.8944 67.7885 43.3906C64.8644 46.2242 61.9001 46.0466 57.7669 44.7896C57.4335 44.6902 57.0707 44.7754 56.8252 45.0134L40.5818 60.7542C40.373 60.9566 40.274 61.2406 40.318 61.5247C40.6917 64.1026 39.8233 66.6308 37.9363 68.4595C36.2361 70.107 33.891 70.9734 31.4873 70.8456C29.0543 70.7107 26.8704 69.6099 25.3351 67.7422C22.9827 64.8802 22.9277 60.6867 25.2032 57.775C26.8448 55.6765 29.2961 54.5012 31.9307 54.5012C32.3337 54.5012 32.7441 54.5296 33.1545 54.5828C33.444 54.6219 33.7408 54.5296 33.946 54.3272L50.1893 38.5899C50.4385 38.3485 50.5301 37.9969 50.4238 37.6702C49.1267 33.6685 48.9435 30.7994 51.8675 27.9658C54.2932 25.6152 58.6023 23.6729 62.2299 23.6764ZM23.4004 25.7501L30.0216 29.9152L30.5419 32.3191L28.6109 34.1869L26.0496 33.6188L21.8211 27.2805L23.4004 25.7501ZM31.5606 33.8993L41.9705 43.9836L40.6441 45.269L30.2378 35.1847L30.8937 34.5526L31.5606 33.8993ZM53.7766 51.1421C54.3995 51.2024 54.9894 51.4581 55.4438 51.8984L68.045 64.1097C69.1442 65.1749 69.1442 66.9006 68.045 67.9659L65.3884 70.5367C64.2928 71.6019 62.5084 71.6019 61.4128 70.5367L48.8079 58.3218C48.207 57.7395 47.9395 56.9157 48.0348 56.1026L53.1463 51.1456C53.3589 51.1243 53.5677 51.1208 53.7766 51.1421ZM33.1032 57.7218C33.0226 57.7218 32.942 57.7324 32.8614 57.7537L28.6732 58.8403C28.3507 58.9255 28.0979 59.1705 28.01 59.483L26.8924 63.538C26.8044 63.8505 26.8961 64.1843 27.1306 64.4151L30.1938 67.3836C30.3734 67.5575 30.6115 67.6499 30.857 67.6499C30.9413 67.6499 31.0219 67.6392 31.1025 67.6215L35.2871 66.5314C35.6095 66.4497 35.8623 66.2047 35.9503 65.8887L37.0715 61.8372C37.1595 61.5211 37.0642 61.1874 36.8297 60.9566L33.7664 57.9881C33.5869 57.8176 33.3487 57.7253 33.1032 57.7218ZM32.8211 59.6428L35.1185 61.8691L34.2794 64.9122L31.1392 65.7289L28.8417 63.5025L29.6808 60.4594L32.8211 59.6428Z" fill="#3083FF"/>
</g>
<defs>
<clipPath id="clip0_113_15556">
<rect width="95" height="95" fill="white"/>
</clipPath>
</defs>
</svg>
