<svg width="95" height="95" viewBox="0 0 95 95" fill="none" xmlns="http://www.w3.org/2000/svg">
<g clip-path="url(#clip0_113_15553)">
<rect width="95" height="95" fill="#F4F9FF"/>
<circle cx="47.5" cy="47.5" r="47.5" fill="#F4F9FF"/>
<path fill-rule="evenodd" clip-rule="evenodd" d="M60.494 48.125H33.8991V62.9999C33.8991 68.081 38.018 72.1999 43.0991 72.1999H51.294C56.3751 72.1999 60.494 68.081 60.494 62.9999V48.125ZM32.0991 46.325V62.9999C32.0991 69.0751 37.0239 73.9999 43.0991 73.9999H51.294C57.3692 73.9999 62.294 69.0751 62.294 62.9999V46.325H32.0991Z" fill="#3083FF"/>
<path fill-rule="evenodd" clip-rule="evenodd" d="M76.2 48.8C76.2 48.2477 75.7523 47.8 75.2 47.8H71.65C71.0977 47.8 70.65 48.2477 70.65 48.8V67.2C70.65 67.7523 71.0977 68.2 71.65 68.2H75.2C75.7523 68.2 76.2 67.7523 76.2 67.2V48.8ZM70.85 46C69.7454 46 68.85 46.8954 68.85 48V68C68.85 69.1046 69.7454 70 70.85 70H76C77.1045 70 78 69.1046 78 68V48C78 46.8954 77.1045 46 76 46H70.85Z" fill="#3083FF"/>
<path fill-rule="evenodd" clip-rule="evenodd" d="M18.8 48.8C18.8 48.2477 19.2477 47.8 19.8 47.8H23.35C23.9023 47.8 24.35 48.2477 24.35 48.8V67.2C24.35 67.7523 23.9023 68.2 23.35 68.2H19.8C19.2477 68.2 18.8 67.7523 18.8 67.2V48.8ZM24.15 46C25.2546 46 26.15 46.8954 26.15 48V68C26.15 69.1046 25.2546 70 24.15 70H19C17.8955 70 17 69.1046 17 68V48C17 46.8954 17.8955 46 19 46H24.15Z" fill="#3083FF"/>
<path fill-rule="evenodd" clip-rule="evenodd" d="M59.762 40C59.762 38.8954 58.8666 38 57.762 38H36.6295C35.525 38 34.6295 38.8954 34.6295 40V47H36.4295V40.8C36.4295 40.2477 36.8772 39.8 37.4295 39.8H56.962C57.5143 39.8 57.962 40.2477 57.962 40.8V47H59.762V40Z" fill="#3083FF"/>
<path fill-rule="evenodd" clip-rule="evenodd" d="M49.0384 32.825V38.8999H50.8384V32.825H49.0384ZM45.3484 38.8999V32.825H43.5484V38.8999H45.3484Z" fill="#3083FF"/>
<path fill-rule="evenodd" clip-rule="evenodd" d="M68.85 50.9001H60.7167V49.1001H68.85V50.9001ZM60.7167 65.1001H68.85V66.9001H60.7167V65.1001Z" fill="#3083FF"/>
<path fill-rule="evenodd" clip-rule="evenodd" d="M26.15 50.9001H33.2667V49.1001H26.15V50.9001ZM33.2667 65.1001H26.15V66.9001H33.2667V65.1001Z" fill="#3083FF"/>
<path fill-rule="evenodd" clip-rule="evenodd" d="M59.5146 21.8H34.5958C32.0484 21.8 29.9833 23.8651 29.9833 26.4125C29.9833 28.9599 32.0484 31.025 34.5958 31.025H59.5146C62.062 31.025 64.1271 28.9599 64.1271 26.4125C64.1271 23.8651 62.062 21.8 59.5146 21.8ZM34.5958 20C31.0543 20 28.1833 22.871 28.1833 26.4125C28.1833 29.954 31.0543 32.825 34.5958 32.825H59.5146C63.0561 32.825 65.9271 29.954 65.9271 26.4125C65.9271 22.871 63.0561 20 59.5146 20H34.5958Z" fill="#3083FF"/>
</g>
<defs>
<clipPath id="clip0_113_15553">
<rect width="95" height="95" fill="white"/>
</clipPath>
</defs>
</svg>
