<svg width="95" height="95" viewBox="0 0 95 95" fill="none" xmlns="http://www.w3.org/2000/svg">
<g clip-path="url(#clip0_113_15510)">
<rect width="95" height="95" fill="#F4F9FF"/>
<circle cx="47.5" cy="47.5" r="47.5" fill="#F4F9FF"/>
<path d="M57.9073 49.417C53.479 49.417 46.2038 55.4269 46.2038 61.1206V74.4056H19.6336V42.8766C19.6336 41.772 20.529 40.8766 21.6336 40.8766H23.4293M57.9073 49.417H71.825M57.9073 49.417V54.478C57.9073 55.5261 58.757 56.3759 59.8052 56.3759H69.9272C70.9753 56.3759 71.825 55.5261 71.825 54.478V49.417M71.825 49.417C76.2534 49.417 76.2534 40.8766 71.825 40.8766H43.9896M23.4293 35.183V40.8766M23.4293 40.8766H43.9896M43.9896 35.183V40.8766M43.9896 35.183H19.001L19.001 27.5915C19.001 23.1631 24.6946 20.0001 28.8066 20C32.9187 20 66.764 20 66.764 20C69.6109 20 70.5598 27.5915 66.764 27.5915H50.9485C49.9331 32.7035 48.1869 34.0665 43.9896 35.183Z" stroke="#3083FF" stroke-width="1.89787"/>
</g>
<defs>
<clipPath id="clip0_113_15510">
<rect width="95" height="95" fill="white"/>
</clipPath>
</defs>
</svg>
