<svg width="95" height="95" viewBox="0 0 95 95" fill="none" xmlns="http://www.w3.org/2000/svg">
<g clip-path="url(#clip0_113_15554)">
<rect width="95" height="95" fill="#F4F9FF"/>
<circle cx="47.5" cy="47.5" r="47.5" fill="#F4F9FF"/>
<path fill-rule="evenodd" clip-rule="evenodd" d="M42.9 34V42H41.1V34H42.9ZM52.1 42V34H53.9V42H52.1Z" fill="#3083FF"/>
<path fill-rule="evenodd" clip-rule="evenodd" d="M38.4683 70.7263V78.6842H36.6683V70.7263H38.4683ZM56.5631 78.6842V70.7263H58.3631V78.6842H56.5631Z" fill="#3083FF"/>
<path fill-rule="evenodd" clip-rule="evenodd" d="M23.8789 55.1472C23.8789 63.6204 30.7477 70.4893 39.2209 70.4893H55.8104C64.2836 70.4893 71.1525 63.6204 71.1525 55.1472H72.9525C72.9525 64.6145 65.2778 72.2893 55.8104 72.2893H39.2209C29.7536 72.2893 22.0789 64.6145 22.0789 55.1472H23.8789Z" fill="#3083FF"/>
<path fill-rule="evenodd" clip-rule="evenodd" d="M22.3157 41.7368H72.7157C75.5411 41.7368 77.8315 44.0272 77.8315 46.8526V51.4947C77.8315 54.3201 75.5411 56.6105 72.7157 56.6105H22.3157C19.4904 56.6105 17.2 54.3201 17.2 51.4947V46.8526C17.2 44.0272 19.4904 41.7368 22.3157 41.7368ZM22.3157 43.5368C20.4845 43.5368 19 45.0213 19 46.8526V51.4947C19 53.326 20.4845 54.8105 22.3157 54.8105H72.7157C74.547 54.8105 76.0315 53.326 76.0315 51.4947V46.8526C76.0315 45.0213 74.547 43.5368 72.7157 43.5368H22.3157Z" fill="#3083FF"/>
<path fill-rule="evenodd" clip-rule="evenodd" d="M56.6101 34.7157H38.4207V24.2947C38.4207 19.2718 42.4925 15.2 47.5154 15.2C52.5383 15.2 56.6101 19.2718 56.6101 24.2947V34.7157ZM47.5154 17C43.4866 17 40.2207 20.2659 40.2207 24.2947V32.9157H54.8101V24.2947C54.8101 20.2659 51.5442 17 47.5154 17Z" fill="#3083FF"/>
</g>
<defs>
<clipPath id="clip0_113_15554">
<rect width="95" height="95" fill="white"/>
</clipPath>
</defs>
</svg>
