<svg width="222" height="45" viewBox="0 0 222 45" fill="none" xmlns="http://www.w3.org/2000/svg">
<path fill-rule="evenodd" clip-rule="evenodd" d="M21.7686 1.49342C22.7089 0.744908 24.0166 0.744909 24.9569 1.49343L45.3922 17.7612C47.3768 19.3411 46.2997 22.632 43.7981 22.632H41.0371V25.6876C41.0371 36.0004 32.9775 44.3606 23.0354 44.3606C13.0934 44.3606 5.03383 36.0004 5.03383 25.6876V22.632H2.92749C0.425809 22.632 -0.651258 19.3411 1.33335 17.7612L21.7686 1.49342ZM15.5075 27.3057C15.5075 22.2732 23.0355 13.1257 23.0355 13.1257C23.0355 13.1257 30.5634 22.2732 30.5634 27.3057C30.5634 31.4764 27.1948 34.8543 23.0355 34.8543C18.8761 34.8543 15.5075 31.4764 15.5075 27.3057Z" fill="#3083FF"/>
<path d="M33.8364 2.94047C33.8364 2.56546 34.1295 2.26145 34.491 2.26145H41.0371C41.3986 2.26145 41.6917 2.56546 41.6917 2.94047V10.4097C41.6917 10.9692 41.0758 11.2886 40.6443 10.9529L34.0983 5.86025C33.9334 5.73201 33.8364 5.53076 33.8364 5.31703V2.94047Z" fill="#3083FF"/>
<path d="M60.516 27.1366V23.2326H65.38C65.9987 23.2326 66.564 23.1046 67.076 22.8486C67.588 22.5926 67.9933 22.2193 68.292 21.7286C68.5907 21.2379 68.74 20.6406 68.74 19.9366C68.74 19.2539 68.5907 18.6673 68.292 18.1766C67.9933 17.6859 67.588 17.3126 67.076 17.0566C66.564 16.8006 65.9987 16.6726 65.38 16.6726H60.516V12.7686H66.116C67.5453 12.7686 68.836 13.0566 69.988 13.6326C71.14 14.2086 72.0467 15.0406 72.708 16.1286C73.3907 17.1953 73.732 18.4646 73.732 19.9366C73.732 21.4086 73.3907 22.6886 72.708 23.7766C72.0467 24.8433 71.14 25.6753 69.988 26.2726C68.836 26.8486 67.5453 27.1366 66.116 27.1366H60.516ZM56.676 35.3606V12.7686H61.7V35.3606H56.676ZM76.3218 35.3606V12.1286H81.2178V35.3606H76.3218ZM91.5775 35.7126C90.1482 35.7126 88.8788 35.4246 87.7695 34.8486C86.6815 34.2513 85.8282 33.4406 85.2095 32.4166C84.5908 31.3713 84.2815 30.1766 84.2815 28.8326V19.8086H89.1775V28.7686C89.1775 29.3019 89.2628 29.7606 89.4335 30.1446C89.6255 30.5286 89.9028 30.8273 90.2655 31.0406C90.6282 31.2539 91.0655 31.3606 91.5775 31.3606C92.3028 31.3606 92.8788 31.1366 93.3055 30.6886C93.7322 30.2193 93.9455 29.5793 93.9455 28.7686V19.8086H98.8415V28.8006C98.8415 30.1659 98.5322 31.3713 97.9135 32.4166C97.2948 33.4406 96.4415 34.2513 95.3535 34.8486C94.2655 35.4246 93.0068 35.7126 91.5775 35.7126ZM101.916 35.3606V19.8086H106.812V35.3606H101.916ZM111.868 35.3606V26.2726C111.868 25.4833 111.622 24.8753 111.132 24.4486C110.662 24.0006 110.076 23.7766 109.372 23.7766C108.881 23.7766 108.444 23.8833 108.06 24.0966C107.676 24.2886 107.366 24.5659 107.132 24.9286C106.918 25.2913 106.812 25.7393 106.812 26.2726L104.924 25.4406C104.924 24.2033 105.19 23.1473 105.724 22.2726C106.257 21.3766 106.982 20.6939 107.9 20.2246C108.817 19.7339 109.852 19.4886 111.004 19.4886C112.092 19.4886 113.062 19.7339 113.916 20.2246C114.79 20.7153 115.484 21.3979 115.996 22.2726C116.508 23.1473 116.764 24.1926 116.764 25.4086V35.3606H111.868ZM121.82 35.3606V26.2726C121.82 25.4833 121.574 24.8753 121.084 24.4486C120.614 24.0006 120.028 23.7766 119.324 23.7766C118.833 23.7766 118.396 23.8833 118.012 24.0966C117.628 24.2886 117.318 24.5659 117.083 24.9286C116.87 25.2913 116.764 25.7393 116.764 26.2726L113.948 25.8886C113.99 24.5659 114.3 23.4353 114.876 22.4966C115.473 21.5366 116.252 20.8006 117.212 20.2886C118.193 19.7553 119.292 19.4886 120.508 19.4886C121.702 19.4886 122.758 19.7446 123.676 20.2566C124.614 20.7473 125.35 21.4619 125.884 22.4006C126.438 23.3179 126.716 24.4273 126.716 25.7286V35.3606H121.82ZM138.813 35.6806C137.768 35.6806 136.808 35.4673 135.933 35.0406C135.058 34.5926 134.344 34.0059 133.789 33.2806C133.234 32.5339 132.914 31.7019 132.829 30.7846V24.2246C132.914 23.3073 133.234 22.4966 133.789 21.7926C134.344 21.0673 135.058 20.5019 135.933 20.0966C136.808 19.6913 137.768 19.4886 138.813 19.4886C140.285 19.4886 141.586 19.8406 142.717 20.5446C143.869 21.2486 144.765 22.2086 145.405 23.4246C146.066 24.6406 146.397 26.0273 146.397 27.5846C146.397 29.1419 146.066 30.5286 145.405 31.7446C144.765 32.9606 143.869 33.9206 142.717 34.6246C141.586 35.3286 140.285 35.6806 138.813 35.6806ZM137.949 31.2646C138.632 31.2646 139.229 31.1046 139.741 30.7846C140.274 30.4646 140.69 30.0273 140.989 29.4726C141.288 28.9179 141.437 28.2886 141.437 27.5846C141.437 26.8593 141.288 26.2193 140.989 25.6646C140.69 25.1099 140.274 24.6833 139.741 24.3846C139.229 24.0646 138.632 23.9046 137.949 23.9046C137.266 23.9046 136.658 24.0646 136.125 24.3846C135.592 24.6833 135.176 25.1099 134.877 25.6646C134.6 26.2193 134.461 26.8593 134.461 27.5846C134.461 28.3099 134.61 28.9499 134.909 29.5046C135.208 30.0593 135.613 30.4966 136.125 30.8166C136.658 31.1153 137.266 31.2646 137.949 31.2646ZM129.853 35.3606V12.1286H134.749V23.6166L133.949 27.3926L134.685 31.1686V35.3606H129.853ZM148.884 35.3606V19.8086H153.78V35.3606H148.884ZM151.348 17.6646C150.58 17.6646 149.94 17.4086 149.428 16.8966C148.938 16.3633 148.692 15.7233 148.692 14.9766C148.692 14.2086 148.938 13.5686 149.428 13.0566C149.94 12.5446 150.58 12.2886 151.348 12.2886C152.116 12.2886 152.746 12.5446 153.236 13.0566C153.727 13.5686 153.972 14.2086 153.972 14.9766C153.972 15.7233 153.727 16.3633 153.236 16.8966C152.746 17.4086 152.116 17.6646 151.348 17.6646ZM167.5 35.3606V26.4966C167.5 25.6859 167.244 25.0353 166.732 24.5446C166.241 24.0326 165.612 23.7766 164.844 23.7766C164.311 23.7766 163.841 23.8939 163.436 24.1286C163.031 24.3419 162.711 24.6619 162.476 25.0886C162.241 25.4939 162.124 25.9633 162.124 26.4966L160.236 25.5686C160.236 24.3526 160.503 23.2859 161.036 22.3686C161.569 21.4513 162.305 20.7473 163.244 20.2566C164.204 19.7446 165.281 19.4886 166.476 19.4886C167.628 19.4886 168.641 19.7659 169.516 20.3206C170.412 20.8539 171.116 21.5686 171.628 22.4646C172.14 23.3606 172.396 24.3419 172.396 25.4086V35.3606H167.5ZM157.228 35.3606V19.8086H162.124V35.3606H157.228ZM182.133 42.3366C180.426 42.3366 178.922 42.0379 177.621 41.4406C176.341 40.8646 175.327 40.0433 174.581 38.9766L177.589 35.9686C178.143 36.6299 178.762 37.1313 179.445 37.4726C180.149 37.8139 180.991 37.9846 181.973 37.9846C183.189 37.9846 184.138 37.6859 184.821 37.0886C185.525 36.4913 185.877 35.6486 185.877 34.5606V30.5926L186.709 27.2006L185.973 23.8086V19.8086H190.773V34.4326C190.773 36.0326 190.399 37.4193 189.653 38.5926C188.906 39.7659 187.882 40.6833 186.581 41.3446C185.279 42.0059 183.797 42.3366 182.133 42.3366ZM181.909 34.8806C180.479 34.8806 179.21 34.5393 178.101 33.8566C176.991 33.1739 176.117 32.2459 175.477 31.0726C174.837 29.8993 174.517 28.5979 174.517 27.1686C174.517 25.7179 174.837 24.4166 175.477 23.2646C176.117 22.0913 176.991 21.1739 178.101 20.5126C179.21 19.8299 180.479 19.4886 181.909 19.4886C182.975 19.4886 183.925 19.6913 184.757 20.0966C185.61 20.4806 186.293 21.0353 186.805 21.7606C187.338 22.4646 187.637 23.2859 187.701 24.2246V30.1446C187.637 31.0619 187.338 31.8833 186.805 32.6086C186.293 33.3126 185.61 33.8673 184.757 34.2726C183.903 34.6779 182.954 34.8806 181.909 34.8806ZM182.837 30.5286C183.519 30.5286 184.106 30.3793 184.597 30.0806C185.109 29.7819 185.493 29.3873 185.749 28.8966C186.026 28.3846 186.165 27.8086 186.165 27.1686C186.165 26.5286 186.026 25.9526 185.749 25.4406C185.493 24.9286 185.109 24.5233 184.597 24.2246C184.106 23.9259 183.519 23.7766 182.837 23.7766C182.175 23.7766 181.589 23.9259 181.077 24.2246C180.565 24.5233 180.17 24.9286 179.893 25.4406C179.615 25.9526 179.477 26.5286 179.477 27.1686C179.477 27.7659 179.615 28.3313 179.893 28.8646C180.17 29.3766 180.554 29.7819 181.045 30.0806C181.557 30.3793 182.154 30.5286 182.837 30.5286ZM215.106 35.3606L208.802 25.2806H208.194L199.49 12.7686H205.474L211.682 22.2406H212.29L220.994 35.3606H215.106ZM199.074 35.3606L207.426 23.2646L211.298 25.4406L204.802 35.3606H199.074ZM212.482 24.7046L208.61 22.5286L214.882 12.7686H220.61L212.482 24.7046Z" fill="#182944"/>
</svg>
