<svg width="32" height="32" viewBox="0 0 32 32" fill="none" xmlns="http://www.w3.org/2000/svg">
<path fill-rule="evenodd" clip-rule="evenodd" d="M14.8927 2.4425C15.5218 1.96131 16.3968 1.96131 17.026 2.4425L30.6991 12.9004C32.027 13.916 31.3064 16.0316 29.6325 16.0316H27.7851V17.9959C27.7851 24.6256 22.3925 30 15.7403 30C9.08815 30 3.6955 24.6256 3.6955 17.9959V16.0316H2.28616C0.612294 16.0316 -0.108368 13.916 1.21952 12.9004L14.8927 2.4425ZM10.7034 19.0361C10.7034 15.8009 15.7403 9.92041 15.7403 9.92041C15.7403 9.92041 20.7773 15.8009 20.7773 19.0361C20.7773 21.7173 18.5233 23.8888 15.7403 23.8888C12.9573 23.8888 10.7034 21.7173 10.7034 19.0361Z" fill="#f46a25"/>
<path d="M22.9672 3.37274C22.9672 3.13166 23.1633 2.93623 23.4052 2.93623H27.7851C28.027 2.93623 28.2231 3.13166 28.2231 3.37274V8.17437C28.2231 8.53408 27.8111 8.7394 27.5223 8.52358L23.1424 5.24974C23.0321 5.1673 22.9672 5.03793 22.9672 4.90053V3.37274Z" fill="#f46a25"/>
</svg>
