<svg xmlns="http://www.w3.org/2000/svg" xmlns:xlink="http://www.w3.org/1999/xlink" width="347" zoomAndPan="magnify" viewBox="0 0 260.25 77.999999" height="104" preserveAspectRatio="xMidYMid meet" version="1.0"><defs><g/><clipPath id="411c246db3"><path d="M 0.714844 0.460938 L 66.523438 0.460938 L 66.523438 77 L 0.714844 77 Z M 0.714844 0.460938 " clip-rule="nonzero"/></clipPath></defs><g clip-path="url(#411c246db3)"><path fill="#f6a80b" d="M 11.925781 11.6875 C 5.007812 18.59375 0.714844 28.152344 0.714844 38.695312 C 0.714844 47.886719 3.847656 56.230469 8.90625 62.769531 C 13.058594 68.15625 18.566406 72.300781 24.695312 74.609375 C 30.765625 76.921875 37.460938 77.457031 44.15625 75.597656 C 50.058594 73.960938 55.960938 70.46875 61.414062 64.714844 C 61.609375 64.492188 61.695312 64.207031 61.582031 63.898438 C 61.496094 63.617188 61.300781 63.390625 60.988281 63.335938 C 53.925781 61.613281 50.339844 58.089844 47.289062 55.128906 C 45.085938 52.960938 43.222656 51.128906 40.398438 51.128906 C 39.382812 51.128906 38.957031 51.15625 38.5625 51.15625 C 34.269531 51.238281 31.160156 51.296875 27.066406 47.238281 C 26.21875 46.390625 25.511719 45.433594 24.890625 44.445312 C 24.269531 43.402344 23.789062 42.304688 23.480469 41.203125 C 23.308594 40.640625 23.339844 40.078125 23.535156 39.539062 C 23.59375 39.457031 23.621094 39.371094 23.675781 39.285156 C 23.902344 38.890625 24.214844 38.554688 24.636719 38.328125 C 25.144531 38.046875 25.710938 37.933594 26.246094 38.019531 C 26.8125 38.132812 27.320312 38.382812 27.714844 38.835938 L 27.828125 38.949219 C 27.828125 38.949219 27.828125 38.949219 27.828125 38.976562 L 27.96875 39.089844 C 29.214844 40.359375 30.824219 41.007812 32.40625 41.0625 C 33.957031 41.089844 35.457031 40.554688 36.585938 39.429688 C 37.742188 38.300781 38.28125 36.777344 38.222656 35.253906 C 38.167969 33.675781 37.515625 32.070312 36.246094 30.800781 C 35.652344 30.179688 34.976562 29.730469 34.242188 29.417969 C 33.507812 29.082031 32.714844 28.882812 31.925781 28.855469 C 31.359375 28.828125 30.824219 28.601562 30.425781 28.265625 C 30.003906 27.898438 29.722656 27.417969 29.609375 26.855469 C 29.496094 26.320312 29.582031 25.753906 29.804688 25.277344 C 30.058594 24.769531 30.457031 24.375 30.964844 24.121094 C 33.140625 23.046875 35.652344 22.652344 38.109375 22.792969 C 40.453125 22.964844 42.742188 23.613281 44.71875 24.738281 C 46.753906 25.894531 48.449219 27.53125 49.464844 29.589844 C 50.199219 31.082031 50.566406 32.804688 50.425781 34.664062 L 50.425781 34.691406 C 50.425781 34.832031 50.425781 35 50.425781 35.199219 C 50.425781 37.230469 51.273438 39.652344 52.683594 41.65625 C 54.011719 43.488281 55.820312 44.898438 57.824219 45.066406 C 57.9375 45.066406 58.078125 45.066406 58.21875 45.066406 C 59.859375 45.066406 61.355469 44.417969 62.429688 43.316406 C 63.53125 42.246094 64.179688 40.753906 64.179688 39.117188 L 64.179688 11.996094 C 64.179688 11.660156 63.984375 11.375 63.671875 11.234375 C 63.359375 11.09375 63.023438 11.179688 62.769531 11.40625 L 61.949219 12.222656 C 61.128906 13.039062 59.773438 13.039062 58.953125 12.222656 C 58.136719 11.40625 58.136719 10.050781 58.953125 9.234375 L 66.269531 2.015625 C 66.523438 1.761719 66.582031 1.425781 66.441406 1.085938 C 66.328125 0.777344 66.015625 0.578125 65.675781 0.578125 L 38.984375 0.496094 C 28.421875 0.496094 18.847656 4.78125 11.925781 11.6875 Z M 58.050781 17.101562 C 59.71875 17.101562 61.046875 18.453125 61.046875 20.089844 C 61.046875 21.75 59.71875 23.078125 58.050781 23.078125 C 56.382812 23.078125 55.058594 21.75 55.058594 20.089844 C 55.058594 18.453125 56.382812 17.101562 58.050781 17.101562 Z M 58.050781 17.101562 " fill-opacity="1" fill-rule="evenodd"/></g><g fill="#000000" fill-opacity="1"><g transform="translate(75.627462, 33.465881)"><g><path d="M 14.171875 -8.546875 L 16.734375 -8.546875 L 16.734375 -2.140625 C 15.835938 -1.460938 14.78125 -0.914062 13.5625 -0.5 C 12.351562 -0.0820312 11.160156 0.125 9.984375 0.125 C 7.410156 0.125 5.242188 -0.722656 3.484375 -2.421875 C 1.722656 -4.117188 0.84375 -6.207031 0.84375 -8.6875 C 0.84375 -11.175781 1.734375 -13.257812 3.515625 -14.9375 C 5.304688 -16.613281 7.519531 -17.453125 10.15625 -17.453125 C 11.375 -17.453125 12.578125 -17.234375 13.765625 -16.796875 C 14.953125 -16.359375 15.972656 -15.765625 16.828125 -15.015625 L 15.171875 -12.859375 C 13.742188 -14.179688 12.070312 -14.84375 10.15625 -14.84375 C 8.382812 -14.84375 6.882812 -14.242188 5.65625 -13.046875 C 4.4375 -11.859375 3.828125 -10.40625 3.828125 -8.6875 C 3.828125 -6.945312 4.441406 -5.476562 5.671875 -4.28125 C 6.898438 -3.09375 8.398438 -2.5 10.171875 -2.5 C 11.515625 -2.5 12.847656 -2.898438 14.171875 -3.703125 Z M 14.171875 -8.546875 "/></g></g></g><g fill="#000000" fill-opacity="1"><g transform="translate(94.21691, 33.465881)"><g><path d="M 14.703125 -14.75 L 5.21875 -14.75 L 5.21875 -10.0625 L 13.703125 -10.0625 L 13.703125 -7.421875 L 5.21875 -7.421875 L 5.21875 -2.625 L 15 -2.625 L 15 0 L 2.28125 0 L 2.28125 -17.375 L 14.703125 -17.375 Z M 14.703125 -14.75 "/></g></g></g><g fill="#000000" fill-opacity="1"><g transform="translate(110.498191, 33.465881)"><g><path d="M 14.703125 -14.75 L 5.21875 -14.75 L 5.21875 -10.0625 L 13.703125 -10.0625 L 13.703125 -7.421875 L 5.21875 -7.421875 L 5.21875 -2.625 L 15 -2.625 L 15 0 L 2.28125 0 L 2.28125 -17.375 L 14.703125 -17.375 Z M 14.703125 -14.75 "/></g></g></g><g fill="#000000" fill-opacity="1"><g transform="translate(126.779471, 33.465881)"><g><path d="M 13.875 0 L 8.171875 -7.671875 L 5.21875 -4.421875 L 5.21875 0 L 2.28125 0 L 2.28125 -17.375 L 5.21875 -17.375 L 5.21875 -8.390625 L 13.5 -17.375 L 16.953125 -17.375 L 10.234375 -9.953125 L 17.40625 0 Z M 13.875 0 "/></g></g></g><g fill="#000000" fill-opacity="1"><g transform="translate(74.927716, 62.631216)"><g><path d="M 9.859375 -20.59375 C 12.898438 -20.59375 15.578125 -19.832031 17.890625 -18.3125 L 15.9375 -14.28125 C 14.863281 -14.894531 13.71875 -15.398438 12.5 -15.796875 C 11.28125 -16.203125 10.253906 -16.40625 9.421875 -16.40625 C 7.929688 -16.40625 7.1875 -15.910156 7.1875 -14.921875 C 7.1875 -14.273438 7.550781 -13.757812 8.28125 -13.375 C 9.019531 -12.988281 9.914062 -12.65625 10.96875 -12.375 C 12.03125 -12.09375 13.085938 -11.753906 14.140625 -11.359375 C 15.203125 -10.960938 16.097656 -10.316406 16.828125 -9.421875 C 17.566406 -8.523438 17.9375 -7.398438 17.9375 -6.046875 C 17.9375 -4.085938 17.171875 -2.5625 15.640625 -1.46875 C 14.109375 -0.375 12.160156 0.171875 9.796875 0.171875 C 8.109375 0.171875 6.441406 -0.113281 4.796875 -0.6875 C 3.148438 -1.269531 1.71875 -2.066406 0.5 -3.078125 L 2.5 -7.0625 C 3.53125 -6.175781 4.742188 -5.445312 6.140625 -4.875 C 7.535156 -4.300781 8.773438 -4.015625 9.859375 -4.015625 C 10.691406 -4.015625 11.335938 -4.164062 11.796875 -4.46875 C 12.265625 -4.769531 12.5 -5.207031 12.5 -5.78125 C 12.5 -6.34375 12.234375 -6.8125 11.703125 -7.1875 C 11.171875 -7.570312 10.503906 -7.851562 9.703125 -8.03125 C 8.910156 -8.21875 8.050781 -8.46875 7.125 -8.78125 C 6.195312 -9.09375 5.332031 -9.429688 4.53125 -9.796875 C 3.738281 -10.171875 3.078125 -10.757812 2.546875 -11.5625 C 2.015625 -12.363281 1.75 -13.328125 1.75 -14.453125 C 1.75 -16.316406 2.488281 -17.804688 3.96875 -18.921875 C 5.445312 -20.035156 7.410156 -20.59375 9.859375 -20.59375 Z M 9.859375 -20.59375 "/></g></g></g><g fill="#000000" fill-opacity="1"><g transform="translate(93.650436, 62.631216)"><g><path d="M 11.6875 -20.53125 C 14.84375 -20.53125 17.46875 -19.546875 19.5625 -17.578125 C 21.65625 -15.609375 22.703125 -13.148438 22.703125 -10.203125 C 22.703125 -7.234375 21.648438 -4.75 19.546875 -2.75 C 17.453125 -0.757812 14.832031 0.234375 11.6875 0.234375 C 8.550781 0.234375 5.9375 -0.757812 3.84375 -2.75 C 1.75 -4.738281 0.703125 -7.222656 0.703125 -10.203125 C 0.703125 -13.171875 1.75 -15.632812 3.84375 -17.59375 C 5.9375 -19.550781 8.550781 -20.53125 11.6875 -20.53125 Z M 11.75 -16.203125 C 10.15625 -16.203125 8.796875 -15.625 7.671875 -14.46875 C 6.546875 -13.3125 5.984375 -11.878906 5.984375 -10.171875 C 5.984375 -8.472656 6.550781 -7.035156 7.6875 -5.859375 C 8.820312 -4.679688 10.175781 -4.09375 11.75 -4.09375 C 13.320312 -4.09375 14.65625 -4.679688 15.75 -5.859375 C 16.84375 -7.035156 17.390625 -8.472656 17.390625 -10.171875 C 17.390625 -11.878906 16.84375 -13.3125 15.75 -14.46875 C 14.65625 -15.625 13.320312 -16.203125 11.75 -16.203125 Z M 11.75 -16.203125 "/></g></g></g><g fill="#000000" fill-opacity="1"><g transform="translate(117.053838, 62.631216)"><g><path d="M 7.21875 -4.328125 L 15.84375 -4.328125 L 15.84375 0 L 2.03125 0 L 2.03125 -20.359375 L 7.21875 -20.359375 Z M 7.21875 -4.328125 "/></g></g></g><g fill="#000000" fill-opacity="1"><g transform="translate(133.334468, 62.631216)"><g><path d="M 20.359375 -20.359375 L 20.359375 -8.546875 C 20.359375 -5.847656 19.523438 -3.707031 17.859375 -2.125 C 16.191406 -0.550781 13.929688 0.234375 11.078125 0.234375 C 8.210938 0.234375 5.929688 -0.550781 4.234375 -2.125 C 2.535156 -3.707031 1.6875 -5.847656 1.6875 -8.546875 L 1.6875 -20.359375 L 6.859375 -20.359375 L 6.859375 -8.546875 C 6.859375 -7.191406 7.25 -6.109375 8.03125 -5.296875 C 8.820312 -4.492188 9.847656 -4.09375 11.109375 -4.09375 C 12.347656 -4.09375 13.335938 -4.488281 14.078125 -5.28125 C 14.828125 -6.082031 15.203125 -7.171875 15.203125 -8.546875 L 15.203125 -20.359375 Z M 20.359375 -20.359375 "/></g></g></g><g fill="#000000" fill-opacity="1"><g transform="translate(155.371458, 62.631216)"><g><path d="M 17.59375 -16.203125 L 11.453125 -16.203125 L 11.453125 0 L 6.28125 0 L 6.28125 -16.203125 L 0.203125 -16.203125 L 0.203125 -20.390625 L 17.59375 -20.390625 Z M 17.59375 -16.203125 "/></g></g></g><g fill="#000000" fill-opacity="1"><g transform="translate(173.13478, 62.631216)"><g><path d="M 7.21875 0 L 2.03125 0 L 2.03125 -20.359375 L 7.21875 -20.359375 Z M 7.21875 0 "/></g></g></g><g fill="#000000" fill-opacity="1"><g transform="translate(182.379854, 62.631216)"><g><path d="M 11.6875 -20.53125 C 14.84375 -20.53125 17.46875 -19.546875 19.5625 -17.578125 C 21.65625 -15.609375 22.703125 -13.148438 22.703125 -10.203125 C 22.703125 -7.234375 21.648438 -4.75 19.546875 -2.75 C 17.453125 -0.757812 14.832031 0.234375 11.6875 0.234375 C 8.550781 0.234375 5.9375 -0.757812 3.84375 -2.75 C 1.75 -4.738281 0.703125 -7.222656 0.703125 -10.203125 C 0.703125 -13.171875 1.75 -15.632812 3.84375 -17.59375 C 5.9375 -19.550781 8.550781 -20.53125 11.6875 -20.53125 Z M 11.75 -16.203125 C 10.15625 -16.203125 8.796875 -15.625 7.671875 -14.46875 C 6.546875 -13.3125 5.984375 -11.878906 5.984375 -10.171875 C 5.984375 -8.472656 6.550781 -7.035156 7.6875 -5.859375 C 8.820312 -4.679688 10.175781 -4.09375 11.75 -4.09375 C 13.320312 -4.09375 14.65625 -4.679688 15.75 -5.859375 C 16.84375 -7.035156 17.390625 -8.472656 17.390625 -10.171875 C 17.390625 -11.878906 16.84375 -13.3125 15.75 -14.46875 C 14.65625 -15.625 13.320312 -16.203125 11.75 -16.203125 Z M 11.75 -16.203125 "/></g></g></g><g fill="#000000" fill-opacity="1"><g transform="translate(205.783256, 62.631216)"><g><path d="M 20.8125 0 L 16.25 0 L 6.890625 -12.53125 L 6.890625 0 L 2.03125 0 L 2.03125 -20.359375 L 6.59375 -20.359375 L 16 -7.796875 L 16 -20.359375 L 20.8125 -20.359375 Z M 20.8125 0 "/></g></g></g><g fill="#000000" fill-opacity="1"><g transform="translate(228.634276, 62.631216)"><g><path d="M 9.859375 -20.59375 C 12.898438 -20.59375 15.578125 -19.832031 17.890625 -18.3125 L 15.9375 -14.28125 C 14.863281 -14.894531 13.71875 -15.398438 12.5 -15.796875 C 11.28125 -16.203125 10.253906 -16.40625 9.421875 -16.40625 C 7.929688 -16.40625 7.1875 -15.910156 7.1875 -14.921875 C 7.1875 -14.273438 7.550781 -13.757812 8.28125 -13.375 C 9.019531 -12.988281 9.914062 -12.65625 10.96875 -12.375 C 12.03125 -12.09375 13.085938 -11.753906 14.140625 -11.359375 C 15.203125 -10.960938 16.097656 -10.316406 16.828125 -9.421875 C 17.566406 -8.523438 17.9375 -7.398438 17.9375 -6.046875 C 17.9375 -4.085938 17.171875 -2.5625 15.640625 -1.46875 C 14.109375 -0.375 12.160156 0.171875 9.796875 0.171875 C 8.109375 0.171875 6.441406 -0.113281 4.796875 -0.6875 C 3.148438 -1.269531 1.71875 -2.066406 0.5 -3.078125 L 2.5 -7.0625 C 3.53125 -6.175781 4.742188 -5.445312 6.140625 -4.875 C 7.535156 -4.300781 8.773438 -4.015625 9.859375 -4.015625 C 10.691406 -4.015625 11.335938 -4.164062 11.796875 -4.46875 C 12.265625 -4.769531 12.5 -5.207031 12.5 -5.78125 C 12.5 -6.34375 12.234375 -6.8125 11.703125 -7.1875 C 11.171875 -7.570312 10.503906 -7.851562 9.703125 -8.03125 C 8.910156 -8.21875 8.050781 -8.46875 7.125 -8.78125 C 6.195312 -9.09375 5.332031 -9.429688 4.53125 -9.796875 C 3.738281 -10.171875 3.078125 -10.757812 2.546875 -11.5625 C 2.015625 -12.363281 1.75 -13.328125 1.75 -14.453125 C 1.75 -16.316406 2.488281 -17.804688 3.96875 -18.921875 C 5.445312 -20.035156 7.410156 -20.59375 9.859375 -20.59375 Z M 9.859375 -20.59375 "/></g></g></g></svg>